# xmcd
#
# Track frame offsets:
#	150
#	9125
#	22480
#	35847
#	45665
#	72757
#	85045
#	94977
#	107645
#	129187
#	148162
#	162207
#	201962
#	218625
#	232415
#	256915
#	274607
#	286740
#	300177
#	316107
#
# Disc length: 4375
#
# Revision: 2
# Processed by: cddbd v1.5.1PL0 Copyright (c) Steve Scherf et al.
# Submitted via: CDex 1.50beta9
# Normalized: r0:TDELIM( - ),TSWAP
#
DISCID=13111514
DTITLE=Various Artist - Jazz II
DYEAR=1900
DGENRE=Jazz
TTITLE0=Tommy Dorsey - I'm getting sentimental over you
TTITLE1=Benny Goodman - Basin street Blues
TTITLE2=Django Reinhardt - Blues for Barelay
TTITLE3=Charlie Christian - Guys got to go
TTITLE4=Ben Webster - Sweet Lorraine
TTITLE5=Charlie Parker - April in Paris
TTITLE6=Louis Armstrong - Way dow yonder in New Orleans
TTITLE7=Sarah Vauphan - What a difference a day made
TTITLE8=Bud Shank - Charity rag
TTITLE9=Count Basie - One o'clock jump
TTITLE10=Bix Beiderdecke - Riverboat shuffle
TTITLE11=Sonny Rollins - Sonnymoon for two
TTITLE12=Duke Ellington - Caravan
TTITLE13=Glen Miller - American patrol
TTITLE14=Lionel Hampton - How hight the moon
TTITLE15=Stan Kenton - Eager beaver
TTITLE16=Charlie Christian - Groovin' high
TTITLE17=Dizzy Gillespie - Night and day
TTITLE18=Benny Goodman - Blues skies
TTITLE19=Lionel Hampton - Win song
EXTD=
EXTT0=
EXTT1=
EXTT2=
EXTT3=
EXTT4=
EXTT5=
EXTT6=
EXTT7=
EXTT8=
EXTT9=
EXTT10=
EXTT11=
EXTT12=
EXTT13=
EXTT14=
EXTT15=
EXTT16=
EXTT17=
EXTT18=
EXTT19=
PLAYORDER=
